<svg width="1265" height="1265" viewBox="0 0 1265 1265" fill="none" xmlns="http://www.w3.org/2000/svg">
<path fill-rule="evenodd" clip-rule="evenodd" d="M963.79 925.002C963.793 925.001 963.797 925.001 963.8 925V924.99C963.797 924.994 963.793 924.998 963.79 925.002ZM963.79 925.002C955.522 926.23 946.246 925.968 937.35 921.66C935.8 920.91 934.34 920.06 932.95 919.15C930.93 921.25 928.9 923.35 926.83 925.42C922.49 929.76 918.06 933.98 913.57 938.11C927.36 938 940.24 937.88 951.96 937.77C955.996 933.584 959.933 929.328 963.79 925.002ZM188.93 796.54C183.54 783.81 176 766 174.55 757.84V757.83C179 738.99 194.55 731.74 194.55 731.74C199.62 750.21 205.91 768.37 213.44 786.17C218.71 798.65 224.55 810.82 230.91 822.67C226.47 832.82 221.96 842.71 217.12 852.36C206.53 834.47 197.1 815.86 188.93 796.54ZM363.266 1005C386.282 1020.03 410.637 1033 436.2 1043.81C493.5 1068.04 554.35 1080.33 617.08 1080.33C679.81 1080.33 740.66 1068.04 797.96 1043.81C823.516 1033 847.861 1020.03 870.87 1005H818.068C808.127 1010.14 797.965 1014.91 787.59 1019.3C733.59 1042.14 676.23 1053.72 617.08 1053.72C557.93 1053.72 500.57 1042.14 446.57 1019.3C436.19 1014.91 426.023 1010.14 416.077 1005H363.266ZM179.03 615.68C179.03 637.01 180.54 658.11 183.54 678.91L183.55 678.92C174.69 683.59 166.66 689.61 159.48 696.97C154.78 670.32 152.42 643.18 152.42 615.68C152.42 552.95 164.71 492.1 188.94 434.8C212.35 379.46 245.85 329.77 288.52 287.1C291.46 284.15 294.45 281.26 297.46 278.4L300.19 282.74C305.27 290.82 315.94 293.25 324.02 288.17C326.07 286.88 328.1 285.72 330.13 284.67C322.31 291.46 314.71 298.54 307.33 305.92C267.1 346.16 235.51 393.01 213.45 445.17C190.61 499.17 179.03 556.54 179.03 615.68ZM945.975 322.481C949.831 320.228 957.823 315.557 959.95 305.63L959.96 305.64C960.15 304.71 960.31 303.66 960.38 302.53C996.09 341.61 1024.59 386.01 1045.23 434.81C1069.46 492.11 1081.75 552.97 1081.75 615.69C1081.75 668.35 1073.08 719.69 1055.96 768.72C1053.04 770.09 1050.17 771.7 1047.39 773.59C1042.3 777.04 1037.83 781.17 1034.12 785.72C1033.16 783.74 1032 781.8 1030.63 779.9C1029.09 777.75 1027.4 775.84 1025.59 774.14C1045.19 723.68 1055.13 670.44 1055.13 615.68C1055.13 556.53 1043.55 499.17 1020.71 445.17C1002.04 401.02 976.51 360.69 944.72 324.94C944.75 324.24 944.8 323.6 944.88 323.13C945.073 323.008 945.312 322.869 945.556 322.727C945.691 322.648 945.828 322.568 945.96 322.49L945.975 322.481ZM446.57 212.03C442.74 213.65 438.95 215.34 435.18 217.06V217.05C427.61 211.55 418.88 205.26 408.89 200.14C417.83 195.66 426.93 191.43 436.2 187.51C493.5 163.28 554.35 150.99 617.08 150.99C679.81 150.99 740.66 163.28 797.96 187.51C847.94 208.65 893.3 238.06 933.06 274.99C927.92 275.2 921.33 277 914.18 282.8C912.03 284.54 909.98 286.33 907.97 288.14C872.18 256.29 831.8 230.72 787.59 212.02C733.59 189.18 676.22 177.6 617.08 177.6C580.38 177.6 544.36 182.07 509.41 190.91C506.39 189.89 503.23 189.12 499.95 188.65C475.78 185.21 460.74 199 451.88 209.83C450.11 210.55 448.34 211.28 446.57 212.03Z" fill="url(#paint0_linear_2_44)"/>
<path d="M351.44 956.61C351.81 956.97 351.99 957.41 351.99 957.94V982.05C351.99 982.58 351.81 983.03 351.46 983.41C351.11 983.78 350.64 983.97 350.06 983.97C349.48 983.97 349.01 983.79 348.64 983.43C348.27 983.07 348.09 982.61 348.09 982.05V963.6L340.44 975.32C340.26 975.56 340.03 975.76 339.75 975.92C339.47 976.08 339.19 976.15 338.9 976.12C338.64 976.15 338.37 976.08 338.09 975.92C337.81 975.76 337.58 975.56 337.4 975.32L329.71 963.24V982.05C329.71 982.61 329.55 983.07 329.22 983.43C328.89 983.79 328.45 983.97 327.9 983.97C327.35 983.97 326.95 983.79 326.62 983.43C326.29 983.07 326.13 982.61 326.13 982.05V957.94C326.13 957.44 326.31 956.99 326.68 956.61C327.05 956.23 327.51 956.03 328.06 956.03C328.38 956.03 328.68 956.11 328.99 956.27C329.3 956.43 329.54 956.64 329.72 956.91L339.07 971.22L348.54 956.91C348.96 956.33 349.49 956.03 350.12 956.03C350.65 956.06 351.09 956.25 351.46 956.61H351.44Z" fill="black"/>
<path d="M376.19 963.34C376.54 963.7 376.72 964.17 376.72 964.76V982.05C376.72 982.58 376.54 983.03 376.19 983.41C375.84 983.79 375.38 983.97 374.83 983.97C374.28 983.97 373.83 983.79 373.49 983.43C373.15 983.07 372.98 982.61 372.98 982.05V981.01C372.3 981.94 371.36 982.73 370.18 983.38C369 984.03 367.72 984.36 366.35 984.36C364.56 984.36 362.94 983.9 361.48 982.97C360.02 982.04 358.88 980.75 358.05 979.08C357.22 977.42 356.81 975.55 356.81 973.48C356.81 971.41 357.22 969.54 358.05 967.88C358.88 966.22 360.02 964.92 361.46 964C362.91 963.07 364.5 962.6 366.23 962.6C367.62 962.6 368.92 962.89 370.12 963.48C371.32 964.06 372.27 964.81 372.98 965.71V964.75C372.98 964.19 373.15 963.73 373.49 963.36C373.83 962.99 374.28 962.8 374.83 962.8C375.38 962.8 375.84 962.98 376.19 963.34ZM370.07 979.9C371.03 979.26 371.78 978.39 372.32 977.27C372.86 976.15 373.13 974.89 373.13 973.48C373.13 972.07 372.86 970.85 372.32 969.73C371.78 968.61 371.03 967.73 370.07 967.08C369.11 966.43 368.01 966.1 366.78 966.1C365.55 966.1 364.45 966.42 363.49 967.06C362.53 967.7 361.78 968.57 361.24 969.69C360.7 970.81 360.43 972.07 360.43 973.48C360.43 974.89 360.7 976.15 361.24 977.27C361.78 978.39 362.53 979.26 363.49 979.9C364.45 980.54 365.55 980.86 366.78 980.86C368.01 980.86 369.11 980.54 370.07 979.9Z" fill="black"/>
<path d="M387.89 966.79V978.67C387.89 980 388.48 980.66 389.67 980.66C389.85 980.66 390.1 980.61 390.42 980.52C390.74 980.43 390.99 980.38 391.17 980.38C391.51 980.38 391.8 980.53 392.04 980.82C392.28 981.11 392.39 981.49 392.39 981.94C392.39 982.5 392.07 982.98 391.44 983.37C390.81 983.77 390.1 983.97 389.31 983.97C388.44 983.97 387.65 983.88 386.92 983.69C386.2 983.5 385.55 983.03 384.99 982.28C384.42 981.52 384.14 980.37 384.14 978.83V966.79H381.85C381.35 966.79 380.94 966.62 380.61 966.29C380.28 965.96 380.12 965.54 380.12 965.03C380.12 964.52 380.28 964.11 380.61 963.79C380.94 963.47 381.35 963.31 381.85 963.31H384.14V959.96C384.14 959.43 384.32 958.98 384.67 958.61C385.02 958.24 385.48 958.05 386.03 958.05C386.58 958.05 387 958.24 387.35 958.61C387.7 958.98 387.88 959.43 387.88 959.96V963.31H391.15C391.65 963.31 392.06 963.48 392.39 963.81C392.72 964.14 392.88 964.56 392.88 965.06C392.88 965.56 392.72 965.98 392.39 966.3C392.06 966.62 391.65 966.78 391.15 966.78H387.88L387.89 966.79Z" fill="black"/>
<path d="M402.89 966.79V978.67C402.89 980 403.48 980.66 404.67 980.66C404.85 980.66 405.1 980.61 405.42 980.52C405.74 980.43 405.99 980.38 406.17 980.38C406.51 980.38 406.8 980.53 407.04 980.82C407.28 981.11 407.39 981.49 407.39 981.94C407.39 982.5 407.07 982.98 406.44 983.37C405.81 983.77 405.1 983.97 404.31 983.97C403.44 983.97 402.65 983.88 401.92 983.69C401.2 983.5 400.55 983.03 399.99 982.28C399.42 981.52 399.14 980.37 399.14 978.83V966.79H396.85C396.35 966.79 395.94 966.62 395.61 966.29C395.28 965.96 395.12 965.54 395.12 965.03C395.12 964.52 395.28 964.11 395.61 963.79C395.94 963.47 396.35 963.31 396.85 963.31H399.14V959.96C399.14 959.43 399.32 958.98 399.67 958.61C400.02 958.24 400.48 958.05 401.03 958.05C401.58 958.05 402 958.24 402.35 958.61C402.7 958.98 402.88 959.43 402.88 959.96V963.31H406.15C406.65 963.31 407.06 963.48 407.39 963.81C407.72 964.14 407.88 964.56 407.88 965.06C407.88 965.56 407.72 965.98 407.39 966.3C407.06 966.62 406.65 966.78 406.15 966.78H402.88L402.89 966.79Z" fill="black"/>
<path d="M449.01 956.61C449.38 956.97 449.56 957.41 449.56 957.94V982.05C449.56 982.58 449.38 983.03 449.03 983.41C448.68 983.78 448.21 983.97 447.63 983.97C447.05 983.97 446.58 983.79 446.21 983.43C445.84 983.07 445.66 982.61 445.66 982.05V963.6L438.01 975.32C437.83 975.56 437.6 975.76 437.32 975.92C437.04 976.08 436.76 976.15 436.47 976.12C436.21 976.15 435.94 976.08 435.66 975.92C435.38 975.76 435.15 975.56 434.97 975.32L427.28 963.24V982.05C427.28 982.61 427.12 983.07 426.79 983.43C426.46 983.79 426.02 983.97 425.47 983.97C424.92 983.97 424.52 983.79 424.19 983.43C423.86 983.07 423.7 982.61 423.7 982.05V957.94C423.7 957.44 423.88 956.99 424.25 956.61C424.62 956.23 425.08 956.03 425.63 956.03C425.95 956.03 426.25 956.11 426.56 956.27C426.87 956.43 427.11 956.64 427.29 956.91L436.64 971.22L446.11 956.91C446.53 956.33 447.06 956.03 447.69 956.03C448.22 956.06 448.66 956.25 449.03 956.61H449.01Z" fill="black"/>
<path d="M469.82 963.6C471.2 964.27 471.89 965.11 471.89 966.15C471.89 966.6 471.74 967.01 471.46 967.37C471.17 967.73 470.8 967.91 470.36 967.91C470.02 967.91 469.75 967.86 469.55 967.75C469.35 967.64 469.08 967.47 468.74 967.23C468.58 967.07 468.33 966.89 467.99 966.67C467.67 966.51 467.23 966.38 466.65 966.27C466.07 966.16 465.55 966.11 465.07 966.11C463.7 966.11 462.49 966.43 461.44 967.07C460.39 967.71 459.57 968.59 458.99 969.72C458.41 970.85 458.12 972.1 458.12 973.49C458.12 974.88 458.4 976.16 458.97 977.28C459.54 978.4 460.33 979.27 461.36 979.91C462.39 980.55 463.56 980.87 464.87 980.87C466.18 980.87 467.34 980.66 468.18 980.23C468.36 980.12 468.61 979.95 468.93 979.71C469.19 979.5 469.42 979.34 469.62 979.23C469.82 979.12 470.06 979.07 470.35 979.07C470.88 979.07 471.29 979.24 471.59 979.57C471.89 979.9 472.04 980.33 472.04 980.86C472.04 981.42 471.69 981.97 470.99 982.51C470.29 983.05 469.36 983.5 468.19 983.84C467.02 984.18 465.76 984.36 464.42 984.36C462.42 984.36 460.66 983.89 459.13 982.94C457.6 982 456.43 980.7 455.6 979.03C454.77 977.37 454.36 975.52 454.36 973.47C454.36 971.42 454.79 969.57 455.66 967.91C456.53 966.25 457.74 964.95 459.29 964C460.84 963.06 462.62 962.58 464.62 962.58C466.62 962.58 468.43 962.91 469.81 963.58L469.82 963.6Z" fill="black"/>
<path d="M497.03 959.3C497.03 959.78 496.87 960.22 496.56 960.62C496.24 961.04 495.81 961.26 495.26 961.26C494.89 961.26 494.54 961.17 494.19 960.98C492.56 960.05 490.8 959.59 488.9 959.59C487 959.59 485.18 960.03 483.67 960.91C482.16 961.79 480.98 963.02 480.14 964.6C479.3 966.18 478.88 967.99 478.88 970.04C478.88 972.25 479.31 974.15 480.18 975.74C481.05 977.33 482.24 978.55 483.77 979.39C485.29 980.23 487.01 980.64 488.9 980.64C490.79 980.64 492.61 980.16 494.19 979.21C494.51 979.05 494.85 978.97 495.22 978.97C495.8 978.97 496.26 979.2 496.6 979.65C496.92 980.05 497.07 980.47 497.07 980.93C497.07 981.25 496.98 981.55 496.81 981.83C496.64 982.11 496.41 982.33 496.12 982.49C495.09 983.07 493.94 983.54 492.67 983.89C491.39 984.23 490.14 984.41 488.9 984.41C486.35 984.41 484 983.84 481.86 982.7C479.72 981.56 478.01 979.9 476.73 977.72C475.45 975.54 474.82 972.99 474.82 970.07C474.82 967.39 475.43 964.96 476.65 962.8C477.87 960.63 479.56 958.93 481.7 957.7C483.84 956.47 486.24 955.85 488.9 955.85C491.56 955.85 493.84 956.49 496.08 957.76C496.71 958.11 497.03 958.64 497.03 959.35V959.3Z" fill="black"/>
<path d="M504.6 983.41C504.23 983.78 503.78 983.97 503.26 983.97C502.74 983.97 502.29 983.78 501.94 983.41C501.58 983.04 501.41 982.59 501.41 982.05V956.39C501.41 955.86 501.59 955.41 501.96 955.04C502.33 954.67 502.77 954.48 503.3 954.48C503.83 954.48 504.27 954.67 504.62 955.04C504.98 955.41 505.15 955.86 505.15 956.39V982.05C505.15 982.58 504.97 983.03 504.6 983.41Z" fill="black"/>
<path d="M528.87 979.11C527.95 980.76 526.69 982.05 525.1 982.98C523.51 983.91 521.75 984.37 519.83 984.37C517.91 984.37 516.15 983.91 514.56 982.98C512.97 982.05 511.71 980.76 510.79 979.11C509.87 977.46 509.41 975.6 509.41 973.53C509.41 971.46 509.87 969.59 510.79 967.91C511.71 966.24 512.97 964.93 514.56 964C516.15 963.07 517.91 962.6 519.83 962.6C521.75 962.6 523.51 963.07 525.1 964C526.69 964.93 527.95 966.23 528.87 967.91C529.79 969.58 530.25 971.46 530.25 973.53C530.25 975.6 529.79 977.46 528.87 979.11ZM525.62 969.69C525.03 968.56 524.23 967.68 523.21 967.06C522.2 966.44 521.07 966.12 519.84 966.12C518.61 966.12 517.48 966.43 516.47 967.06C515.46 967.68 514.66 968.56 514.06 969.69C513.46 970.82 513.17 972.1 513.17 973.53C513.17 974.96 513.47 976.2 514.06 977.32C514.65 978.44 515.45 979.31 516.47 979.93C517.48 980.55 518.61 980.87 519.84 980.87C521.07 980.87 522.2 980.56 523.21 979.93C524.22 979.31 525.03 978.44 525.62 977.32C526.21 976.2 526.51 974.94 526.51 973.53C526.51 972.12 526.21 970.81 525.62 969.69Z" fill="black"/>
<path d="M533.05 979.62C533.05 979.09 533.33 978.64 533.88 978.27C534.14 978.08 534.45 977.99 534.79 977.99C535.26 977.99 535.7 978.19 536.09 978.59C536.88 979.49 537.73 980.17 538.63 980.62C539.54 981.07 540.62 981.3 541.89 981.3C542.89 981.27 543.77 981.04 544.53 980.6C545.29 980.16 545.67 979.45 545.67 978.47C545.67 977.57 545.28 976.88 544.51 976.4C543.73 975.92 542.6 975.48 541.1 975.08C539.63 974.68 538.4 974.26 537.43 973.83C536.46 973.39 535.64 972.75 534.96 971.92C534.28 971.09 533.95 969.99 533.95 968.63C533.95 967.43 534.29 966.39 534.96 965.48C535.63 964.58 536.52 963.87 537.64 963.37C538.76 962.87 539.97 962.61 541.29 962.61C542.61 962.61 543.81 962.85 545.06 963.33C546.31 963.81 547.33 964.54 548.12 965.52C548.44 965.89 548.59 966.28 548.59 966.68C548.59 967.1 548.38 967.52 547.96 967.92C547.7 968.16 547.37 968.28 546.97 968.28C546.5 968.28 546.11 968.12 545.83 967.8C545.28 967.16 544.6 966.67 543.8 966.33C543 965.99 542.11 965.81 541.14 965.81C540.17 965.81 539.29 966.02 538.6 966.43C537.9 966.84 537.55 967.54 537.55 968.52C537.58 969.45 537.98 970.14 538.75 970.59C539.52 971.04 540.72 971.48 542.32 971.9C543.71 972.27 544.87 972.67 545.79 973.1C546.71 973.52 547.49 974.16 548.12 974.99C548.75 975.82 549.07 976.92 549.07 978.28C549.07 979.53 548.72 980.61 548.01 981.53C547.3 982.45 546.37 983.15 545.23 983.64C544.09 984.13 542.87 984.38 541.58 984.38C539.92 984.38 538.39 984.09 536.98 983.5C535.57 982.92 534.38 981.99 533.41 980.71C533.17 980.34 533.06 979.98 533.06 979.63L533.05 979.62Z" fill="black"/>
<path d="M570.89 982.05C570.89 982.58 570.69 983.03 570.28 983.38C569.87 983.74 569.44 983.92 569 983.92C568.42 983.92 567.96 983.71 567.62 983.28L559.85 974.95L557.48 977.1V982.04C557.48 982.57 557.3 983.02 556.95 983.4C556.6 983.77 556.15 983.96 555.63 983.96C555.08 983.96 554.62 983.77 554.27 983.4C553.91 983.03 553.74 982.58 553.74 982.04V956.38C553.74 955.85 553.92 955.4 554.27 955.03C554.62 954.66 555.08 954.47 555.63 954.47C556.18 954.47 556.6 954.66 556.95 955.03C557.31 955.4 557.48 955.85 557.48 956.38V972.56L567.15 963.59C567.6 963.19 568.06 962.99 568.53 962.99C568.98 962.99 569.38 963.18 569.75 963.57C570.12 963.96 570.3 964.36 570.3 964.79C570.3 965.32 570.05 965.8 569.55 966.22L562.72 972.36L570.3 980.65C570.69 981.07 570.89 981.54 570.89 982.04V982.05Z" fill="black"/>
<path d="M592 973.94C591.63 974.27 591.2 974.44 590.7 974.44H576.81C576.99 976.38 577.72 977.93 579 979.1C580.28 980.27 581.83 980.85 583.68 980.85C584.94 980.85 585.97 980.66 586.76 980.29C587.55 979.92 588.25 979.44 588.85 978.86C589.24 978.62 589.63 978.5 589.99 978.5C590.44 978.5 590.81 978.66 591.11 978.98C591.41 979.3 591.56 979.67 591.56 980.1C591.56 980.66 591.3 981.16 590.77 981.61C590.01 982.38 588.99 983.03 587.73 983.56C586.47 984.09 585.18 984.36 583.86 984.36C581.73 984.36 579.86 983.91 578.24 983.01C576.62 982.11 575.37 980.84 574.49 979.22C573.61 977.6 573.17 975.77 573.17 973.72C573.17 971.49 573.62 969.53 574.53 967.84C575.44 966.15 576.63 964.86 578.12 963.96C579.61 963.06 581.2 962.6 582.91 962.6C584.62 962.6 586.17 963.04 587.64 963.92C589.11 964.8 590.3 966.01 591.19 967.55C592.08 969.09 592.54 970.82 592.57 972.73C592.54 973.21 592.35 973.61 591.98 973.95L592 973.94ZM579.1 967.36C578.02 968.2 577.31 969.49 576.97 971.24H588.61V970.92C588.48 969.51 587.85 968.36 586.74 967.45C585.62 966.55 584.35 966.09 582.93 966.09C581.51 966.09 580.18 966.51 579.1 967.35V967.36Z" fill="black"/>
<path d="M613.48 963.44C613.83 963.81 614.01 964.26 614.01 964.8V982.01C614.01 985.33 613.1 987.81 611.29 989.46C609.48 991.11 607.08 991.93 604.11 991.93C603.14 991.93 602.18 991.84 601.23 991.65C600.28 991.46 599.51 991.21 598.9 990.89C597.93 990.44 597.44 989.83 597.44 989.06C597.44 988.93 597.47 988.75 597.52 988.54C597.68 988.09 597.9 987.74 598.19 987.5C598.48 987.26 598.81 987.14 599.18 987.14C599.39 987.14 599.59 987.18 599.77 987.26C600.59 987.63 601.31 987.92 601.94 988.14C602.57 988.35 603.31 988.46 604.15 988.46C608.23 988.46 610.27 986.35 610.27 982.12V981.32C609.56 982.28 608.65 983.02 607.53 983.55C606.41 984.08 605.13 984.35 603.68 984.35C601.5 984.35 599.79 983.65 598.57 982.24C597.35 980.83 596.74 978.99 596.74 976.7V964.78C596.74 964.22 596.91 963.76 597.25 963.4C597.59 963.04 598.04 962.86 598.59 962.86C599.14 962.86 599.6 963.05 599.95 963.42C600.3 963.79 600.48 964.24 600.48 964.78V975.7C600.48 977.45 600.86 978.75 601.62 979.59C602.38 980.43 603.54 980.84 605.09 980.84C606.64 980.84 607.83 980.36 608.8 979.41C609.77 978.45 610.26 977.22 610.26 975.7V964.78C610.26 964.22 610.43 963.76 610.77 963.4C611.11 963.04 611.56 962.86 612.11 962.86C612.66 962.86 613.12 963.05 613.47 963.42L613.48 963.44Z" fill="black"/>
<path d="M654.22 982.29C654.22 982.66 654.07 983.03 653.79 983.41C653.5 983.78 653.12 983.97 652.65 983.97C652.2 983.97 651.83 983.86 651.55 983.65L647.92 980.62C645.45 983.12 642.34 984.37 638.61 984.37C636.8 984.37 635.14 983.95 633.66 983.12C632.17 982.28 631.01 981.18 630.17 979.81C629.33 978.44 628.91 977 628.91 975.49C628.91 973.63 629.4 971.98 630.37 970.53C631.34 969.08 632.8 967.95 634.75 967.12C634.22 966.35 633.83 965.62 633.57 964.93C633.31 964.24 633.18 963.52 633.18 962.78C633.18 961.48 633.51 960.29 634.17 959.21C634.83 958.13 635.77 957.28 637.01 956.64C638.25 956 639.68 955.68 641.31 955.68C643.12 955.68 644.72 956.01 646.1 956.66C647.48 957.31 648.42 958.14 648.92 959.15C649.1 959.52 649.2 959.93 649.2 960.39C649.2 960.82 649.05 961.17 648.75 961.47C648.45 961.76 648.05 961.91 647.55 961.91C646.97 961.91 646.55 961.7 646.29 961.27C645.74 960.47 645.06 959.88 644.26 959.5C643.46 959.12 642.48 958.92 641.32 958.92C639.98 958.92 638.95 959.27 638.22 959.96C637.5 960.65 637.14 961.54 637.14 962.63C637.14 963.59 637.48 964.56 638.17 965.54C638.85 966.52 639.83 967.71 641.09 969.09L641.8 969.89C643.33 971.59 645.19 973.44 647.4 975.43C648.08 974.08 648.56 972.59 648.82 970.97C648.95 970.2 649.48 969.81 650.4 969.81C650.93 969.81 651.35 970.03 651.68 970.47C652.01 970.91 652.13 971.42 652.06 972C651.72 974.18 651.06 976.12 650.09 977.82C651.17 978.78 652.29 979.73 653.44 980.69C653.99 981.19 654.27 981.74 654.27 982.32L654.22 982.29ZM645.3 978.34C642.49 975.84 640.1 973.48 638.16 971.25C637.79 970.85 637.36 970.35 636.86 969.74C635.36 970.19 634.3 970.86 633.66 971.73C633.02 972.6 632.71 973.67 632.71 974.92C632.71 975.96 632.95 976.91 633.42 977.79C633.89 978.67 634.63 979.38 635.63 979.94C636.63 980.5 637.87 980.78 639.34 980.78C641.65 980.78 643.64 979.97 645.3 978.35V978.34Z" fill="black"/>
<path d="M694.74 956.61C695.11 956.97 695.29 957.41 695.29 957.94V982.05C695.29 982.58 695.11 983.03 694.76 983.41C694.4 983.78 693.94 983.97 693.36 983.97C692.78 983.97 692.31 983.79 691.94 983.43C691.57 983.07 691.39 982.61 691.39 982.05V963.6L683.74 975.32C683.56 975.56 683.33 975.76 683.05 975.92C682.77 976.08 682.49 976.15 682.2 976.12C681.94 976.15 681.67 976.08 681.39 975.92C681.11 975.76 680.88 975.56 680.7 975.32L673.01 963.24V982.05C673.01 982.61 672.85 983.07 672.52 983.43C672.19 983.79 671.75 983.97 671.2 983.97C670.65 983.97 670.25 983.79 669.92 983.43C669.59 983.07 669.43 982.61 669.43 982.05V957.94C669.43 957.44 669.61 956.99 669.98 956.61C670.35 956.23 670.81 956.03 671.36 956.03C671.68 956.03 671.98 956.11 672.29 956.27C672.59 956.43 672.83 956.64 673.02 956.91L682.37 971.22L691.84 956.91C692.26 956.33 692.79 956.03 693.42 956.03C693.95 956.06 694.39 956.25 694.76 956.61H694.74Z" fill="black"/>
<path d="M701.39 959.84C701.06 959.56 700.9 959.12 700.9 958.51V957.87C700.9 957.23 701.08 956.78 701.43 956.52C701.79 956.25 702.33 956.12 703.07 956.12C703.81 956.12 704.34 956.26 704.67 956.54C705 956.82 705.16 957.26 705.16 957.87V958.51C705.16 959.15 704.99 959.6 704.65 959.87C704.31 960.14 703.77 960.27 703.03 960.27C702.29 960.27 701.72 960.13 701.39 959.85V959.84ZM704.39 983.41C704.04 983.78 703.58 983.97 703.03 983.97C702.48 983.97 702.06 983.78 701.71 983.41C701.36 983.04 701.18 982.59 701.18 982.05V964.8C701.18 964.27 701.36 963.82 701.71 963.44C702.07 963.07 702.5 962.88 703.03 962.88C703.56 962.88 704.04 963.07 704.39 963.44C704.75 963.81 704.92 964.26 704.92 964.8V982.05C704.92 982.58 704.74 983.03 704.39 983.41Z" fill="black"/>
<path d="M724.51 963.6C725.89 964.27 726.58 965.11 726.58 966.15C726.58 966.6 726.43 967.01 726.15 967.37C725.86 967.73 725.49 967.91 725.05 967.91C724.71 967.91 724.44 967.86 724.24 967.75C724.04 967.64 723.77 967.47 723.43 967.23C723.27 967.07 723.02 966.89 722.68 966.67C722.36 966.51 721.92 966.38 721.34 966.27C720.76 966.16 720.24 966.11 719.76 966.11C718.39 966.11 717.18 966.43 716.13 967.07C715.08 967.71 714.26 968.59 713.68 969.72C713.1 970.85 712.81 972.1 712.81 973.49C712.81 974.88 713.09 976.16 713.66 977.28C714.23 978.4 715.02 979.27 716.05 979.91C717.08 980.55 718.25 980.87 719.56 980.87C720.87 980.87 722.03 980.66 722.87 980.23C723.05 980.12 723.3 979.95 723.62 979.71C723.88 979.5 724.11 979.34 724.31 979.23C724.51 979.12 724.75 979.07 725.04 979.07C725.57 979.07 725.98 979.24 726.28 979.57C726.58 979.9 726.73 980.33 726.73 980.86C726.73 981.42 726.38 981.97 725.69 982.51C724.99 983.05 724.06 983.5 722.89 983.84C721.72 984.18 720.46 984.36 719.12 984.36C717.12 984.36 715.36 983.89 713.83 982.94C712.3 982 711.13 980.7 710.3 979.03C709.47 977.37 709.06 975.52 709.06 973.47C709.06 971.42 709.49 969.57 710.36 967.91C711.23 966.25 712.44 964.95 713.99 964C715.54 963.06 717.32 962.58 719.32 962.58C721.32 962.58 723.13 962.91 724.51 963.58V963.6Z" fill="black"/>
<path d="M747.85 971.41V982.05C747.85 982.58 747.67 983.03 747.32 983.41C746.97 983.78 746.51 983.97 745.96 983.97C745.41 983.97 744.99 983.78 744.64 983.41C744.29 983.04 744.11 982.59 744.11 982.05V971.41C744.11 967.96 742.66 966.23 739.77 966.23C738.22 966.23 736.93 966.73 735.9 967.72C734.87 968.72 734.36 969.95 734.36 971.41V982.05C734.36 982.58 734.18 983.03 733.83 983.41C733.47 983.78 733.02 983.97 732.47 983.97C731.92 983.97 731.47 983.79 731.13 983.43C730.79 983.07 730.62 982.61 730.62 982.05V956.39C730.62 955.86 730.8 955.41 731.15 955.04C731.5 954.67 731.94 954.48 732.47 954.48C733 954.48 733.48 954.67 733.83 955.04C734.18 955.41 734.36 955.86 734.36 956.39V966.47C735.02 965.43 735.94 964.55 737.12 963.82C738.3 963.09 739.57 962.72 740.91 962.72C745.54 962.72 747.85 965.62 747.85 971.41Z" fill="black"/>
<path d="M771.58 963.34C771.94 963.7 772.11 964.17 772.11 964.76V982.05C772.11 982.58 771.93 983.03 771.58 983.41C771.23 983.79 770.77 983.97 770.22 983.97C769.67 983.97 769.22 983.79 768.88 983.43C768.54 983.07 768.37 982.61 768.37 982.05V981.01C767.69 981.94 766.75 982.73 765.57 983.38C764.39 984.03 763.11 984.36 761.74 984.36C759.95 984.36 758.33 983.9 756.87 982.97C755.41 982.04 754.27 980.75 753.44 979.08C752.61 977.42 752.2 975.55 752.2 973.48C752.2 971.41 752.61 969.54 753.44 967.88C754.27 966.22 755.41 964.92 756.85 964C758.29 963.08 759.89 962.6 761.62 962.6C763.01 962.6 764.31 962.89 765.51 963.48C766.71 964.06 767.66 964.81 768.37 965.71V964.75C768.37 964.19 768.54 963.73 768.88 963.36C769.22 962.99 769.67 962.8 770.22 962.8C770.77 962.8 771.23 962.98 771.58 963.34ZM765.46 979.9C766.42 979.26 767.17 978.39 767.71 977.27C768.25 976.15 768.52 974.89 768.52 973.48C768.52 972.07 768.25 970.85 767.71 969.73C767.17 968.61 766.42 967.73 765.46 967.08C764.5 966.43 763.4 966.1 762.17 966.1C760.94 966.1 759.84 966.42 758.88 967.06C757.92 967.7 757.17 968.57 756.63 969.69C756.09 970.81 755.82 972.07 755.82 973.48C755.82 974.89 756.09 976.15 756.63 977.27C757.17 978.39 757.92 979.26 758.88 979.9C759.84 980.54 760.94 980.86 762.17 980.86C763.4 980.86 764.5 980.54 765.46 979.9Z" fill="black"/>
<path d="M795.23 973.94C794.86 974.27 794.43 974.44 793.93 974.44H780.04C780.22 976.38 780.95 977.93 782.23 979.1C783.51 980.27 785.06 980.85 786.91 980.85C788.17 980.85 789.2 980.66 789.99 980.29C790.78 979.92 791.48 979.44 792.08 978.86C792.47 978.62 792.86 978.5 793.22 978.5C793.67 978.5 794.04 978.66 794.34 978.98C794.64 979.3 794.79 979.67 794.79 980.1C794.79 980.66 794.53 981.16 794 981.61C793.24 982.38 792.22 983.03 790.96 983.56C789.7 984.09 788.41 984.36 787.09 984.36C784.96 984.36 783.09 983.91 781.47 983.01C779.85 982.11 778.6 980.84 777.72 979.22C776.84 977.6 776.4 975.77 776.4 973.72C776.4 971.49 776.85 969.53 777.76 967.84C778.67 966.15 779.86 964.86 781.35 963.96C782.84 963.06 784.43 962.6 786.14 962.6C787.85 962.6 789.4 963.04 790.88 963.92C792.35 964.8 793.54 966.01 794.43 967.55C795.32 969.09 795.78 970.82 795.81 972.73C795.78 973.21 795.59 973.61 795.22 973.95L795.23 973.94ZM782.33 967.36C781.25 968.2 780.54 969.49 780.2 971.24H791.84V970.92C791.71 969.51 791.08 968.36 789.97 967.45C788.86 966.54 787.58 966.09 786.16 966.09C784.74 966.09 783.41 966.51 782.33 967.35V967.36Z" fill="black"/>
<path d="M803.68 983.41C803.31 983.78 802.86 983.97 802.34 983.97C801.82 983.97 801.37 983.78 801.02 983.41C800.67 983.04 800.49 982.59 800.49 982.05V956.39C800.49 955.86 800.67 955.41 801.04 955.04C801.41 954.67 801.85 954.48 802.38 954.48C802.91 954.48 803.35 954.67 803.7 955.04C804.05 955.41 804.23 955.86 804.23 956.39V982.05C804.23 982.58 804.05 983.03 803.68 983.41Z" fill="black"/>
<path d="M843 956.55C843.38 956.89 843.57 957.32 843.57 957.82C843.57 958.09 843.5 958.38 843.37 958.7L833.31 982.73C833.13 983.13 832.86 983.43 832.52 983.65C832.18 983.86 831.82 983.97 831.45 983.97C831.11 983.94 830.78 983.83 830.48 983.63C830.18 983.43 829.93 983.15 829.75 982.77L819.69 958.7C819.58 958.49 819.53 958.21 819.53 957.86C819.53 957.3 819.73 956.85 820.12 956.51C820.51 956.17 820.95 955.99 821.42 955.99C822.21 955.99 822.79 956.42 823.16 957.27L831.76 977.79L839.89 957.23C840.07 956.86 840.32 956.57 840.62 956.35C840.92 956.14 841.26 956.03 841.63 956.03C842.16 956.03 842.61 956.2 842.99 956.55H843Z" fill="black"/>
<path d="M865.21 963.34C865.57 963.7 865.74 964.17 865.74 964.76V982.05C865.74 982.58 865.56 983.03 865.21 983.41C864.86 983.79 864.4 983.97 863.85 983.97C863.3 983.97 862.85 983.79 862.51 983.43C862.17 983.07 862 982.61 862 982.05V981.01C861.32 981.94 860.38 982.73 859.2 983.38C858.02 984.03 856.74 984.36 855.37 984.36C853.58 984.36 851.96 983.9 850.5 982.97C849.04 982.04 847.9 980.75 847.07 979.08C846.24 977.42 845.83 975.55 845.83 973.48C845.83 971.41 846.24 969.54 847.07 967.88C847.9 966.22 849.04 964.92 850.48 964C851.92 963.08 853.52 962.6 855.25 962.6C856.64 962.6 857.94 962.89 859.14 963.48C860.34 964.06 861.29 964.81 862 965.71V964.75C862 964.19 862.17 963.73 862.51 963.36C862.85 962.99 863.3 962.8 863.85 962.8C864.4 962.8 864.86 962.98 865.21 963.34ZM859.09 979.9C860.05 979.26 860.8 978.39 861.34 977.27C861.88 976.15 862.15 974.89 862.15 973.48C862.15 972.07 861.88 970.85 861.34 969.73C860.8 968.61 860.05 967.73 859.09 967.08C858.13 966.43 857.03 966.1 855.8 966.1C854.57 966.1 853.47 966.42 852.51 967.06C851.55 967.7 850.8 968.57 850.26 969.69C849.72 970.81 849.45 972.07 849.45 973.48C849.45 974.89 849.72 976.15 850.26 977.27C850.8 978.39 851.55 979.26 852.51 979.9C853.47 980.54 854.57 980.86 855.8 980.86C857.03 980.86 858.13 980.54 859.09 979.9Z" fill="black"/>
<path d="M885.49 963.6C886.87 964.27 887.56 965.11 887.56 966.15C887.56 966.6 887.41 967.01 887.13 967.37C886.84 967.73 886.47 967.91 886.03 967.91C885.69 967.91 885.42 967.86 885.22 967.75C885.02 967.64 884.75 967.47 884.41 967.23C884.25 967.07 884 966.89 883.66 966.67C883.34 966.51 882.9 966.38 882.32 966.27C881.74 966.16 881.22 966.11 880.74 966.11C879.37 966.11 878.16 966.43 877.11 967.07C876.06 967.71 875.24 968.59 874.66 969.72C874.08 970.85 873.79 972.1 873.79 973.49C873.79 974.88 874.07 976.16 874.64 977.28C875.21 978.4 876 979.27 877.03 979.91C878.06 980.55 879.23 980.87 880.54 980.87C881.85 980.87 883.01 980.66 883.85 980.23C884.03 980.12 884.28 979.95 884.6 979.71C884.86 979.5 885.09 979.34 885.29 979.23C885.49 979.12 885.73 979.07 886.02 979.07C886.55 979.07 886.96 979.24 887.26 979.57C887.56 979.9 887.71 980.33 887.71 980.86C887.71 981.42 887.36 981.97 886.67 982.51C885.97 983.05 885.04 983.5 883.87 983.84C882.7 984.18 881.44 984.36 880.1 984.36C878.1 984.36 876.34 983.89 874.81 982.94C873.28 982 872.11 980.7 871.28 979.03C870.45 977.37 870.04 975.52 870.04 973.47C870.04 971.42 870.47 969.57 871.34 967.91C872.21 966.25 873.42 964.95 874.97 964C876.52 963.06 878.3 962.58 880.3 962.58C882.3 962.58 884.11 962.91 885.49 963.58V963.6Z" fill="black"/>
<path d="M895.1 983.41C894.73 983.78 894.28 983.97 893.76 983.97C893.24 983.97 892.79 983.78 892.44 983.41C892.09 983.04 891.91 982.59 891.91 982.05V956.39C891.91 955.86 892.09 955.41 892.46 955.04C892.83 954.67 893.27 954.48 893.8 954.48C894.33 954.48 894.77 954.67 895.12 955.04C895.47 955.41 895.65 955.86 895.65 956.39V982.05C895.65 982.58 895.47 983.03 895.1 983.41Z" fill="black"/>
<path d="M919.7 963.34C920.06 963.7 920.23 964.17 920.23 964.76V982.05C920.23 982.58 920.05 983.03 919.7 983.41C919.35 983.79 918.89 983.97 918.34 983.97C917.79 983.97 917.34 983.79 917 983.43C916.66 983.07 916.49 982.61 916.49 982.05V981.01C915.81 981.94 914.87 982.73 913.69 983.38C912.51 984.03 911.23 984.36 909.86 984.36C908.07 984.36 906.45 983.9 904.99 982.97C903.53 982.04 902.39 980.75 901.56 979.08C900.73 977.42 900.32 975.55 900.32 973.48C900.32 971.41 900.73 969.54 901.56 967.88C902.39 966.22 903.53 964.92 904.97 964C906.41 963.08 908.01 962.6 909.74 962.6C911.13 962.6 912.43 962.89 913.63 963.48C914.83 964.06 915.78 964.81 916.49 965.71V964.75C916.49 964.19 916.66 963.73 917 963.36C917.34 962.99 917.79 962.8 918.34 962.8C918.89 962.8 919.35 962.98 919.7 963.34ZM913.58 979.9C914.54 979.26 915.29 978.39 915.83 977.27C916.37 976.15 916.64 974.89 916.64 973.48C916.64 972.07 916.37 970.85 915.83 969.73C915.29 968.61 914.54 967.73 913.58 967.08C912.62 966.43 911.52 966.1 910.29 966.1C909.06 966.1 907.96 966.42 907 967.06C906.04 967.7 905.29 968.57 904.75 969.69C904.21 970.81 903.94 972.07 903.94 973.48C903.94 974.89 904.21 976.15 904.75 977.27C905.29 978.39 906.04 979.26 907 979.9C907.96 980.54 909.06 980.86 910.29 980.86C911.52 980.86 912.62 980.54 913.58 979.9Z" fill="black"/>
<path d="M942.37 963.38C942.71 963.71 942.88 964.1 942.88 964.56C942.88 964.8 942.79 965.13 942.6 965.56L935.1 982.78C934.94 983.13 934.72 983.4 934.43 983.62C934.14 983.83 933.82 983.95 933.48 983.98C933.06 984.03 932.67 983.95 932.32 983.74C931.97 983.53 931.7 983.21 931.51 982.78L924.01 965.56C923.88 965.16 923.81 964.83 923.81 964.56C923.81 964.14 923.98 963.75 924.32 963.4C924.66 963.06 925.11 962.88 925.66 962.88C926.05 962.88 926.41 962.98 926.73 963.18C927.05 963.38 927.3 963.68 927.48 964.08L933.44 978.07L939.4 964.08C939.77 963.28 940.33 962.88 941.1 962.88C941.6 962.88 942.02 963.05 942.36 963.38H942.37Z" fill="black"/>
<path d="M772.93 403.45C764.77 410.19 757.59 416.77 749.74 422.42C742.45 427.67 734.1 427.9 726.48 423.05C718.51 417.98 717.05 409.81 718.8 401.2C722.97 380.68 734.24 363.33 744.32 345.47C751.32 333.07 749.35 323.76 738.58 320.18C727.81 316.6 722.23 323.78 717.63 331.53C711.08 342.57 705.52 354.13 697.25 364.2C686.37 377.44 672.67 384.37 655.8 384.72C648.26 384.88 643.6 385.58 639.81 394.29C634.46 406.59 623.36 415.4 611.07 421.28C594.29 429.32 582.81 423.76 573.03 402.9C567.15 407.99 561.52 412.86 555.88 417.73C546.09 426.19 535.2 430.98 523.97 421.57C513.05 412.43 515.26 400.1 520.53 388.99C529.8 369.43 541.73 351.38 553.96 333.53C557.49 328.38 564.59 322.32 558.04 315.99C551.35 309.52 544.59 315.97 538.77 319.78C520.22 331.94 506.41 348.01 497.91 368.78C491.88 383.51 484.85 397.83 477.99 412.21C475.4 417.64 472.41 425.97 465.52 423.32C457.63 420.3 460.69 411.47 463.39 405.8C477.35 376.61 491.13 347.28 506.56 318.87C518.57 296.75 531.25 274.99 542.39 252.39C544.87 247.35 547.71 242.3 551.29 238.03C554.51 234.18 559.46 229.77 564.46 233.52C568.54 236.59 566.23 241.81 563.92 246.15C555.95 261.11 548.18 276.19 540.41 291.26C538.66 294.65 534.18 297.81 538 302.11C541.02 305.52 544.57 303.22 547.9 301.81C556.92 297.99 566.13 295.71 572.83 305.4C579.8 315.48 578.48 326.1 571.35 335.45C560.1 350.18 548.24 364.44 540.17 381.32C537.73 386.42 535.07 391.45 533.18 396.75C531.82 400.59 531.18 405.04 534.81 408.25C539.44 412.34 543.77 409.21 547.32 406.53C562.6 394.98 572 379.44 578.12 361.41C585.01 341.13 595.31 322.7 613.43 310.25C626.43 301.31 640.55 294.06 656.43 303.44C672.6 312.99 668.38 329.09 668.15 343.73C668.13 344.75 667.84 345.76 667.7 346.78C666.82 353.26 659.46 362.36 667.17 365.5C674.87 368.63 681.39 359.57 686.47 353.02C700.27 335.24 707.89 314.56 714.29 293.33C716.22 286.94 717.15 279.05 725.53 278.74C735.43 278.37 733.95 287.13 734.97 293.4C736.67 303.86 744.11 307.38 753.32 309.31C773.63 313.59 774.67 316.94 765.38 336.21C756.23 355.18 741.9 371.37 735.9 392.02C734.33 397.41 730.39 403.26 736.25 407.47C742.63 412.05 748.1 406.96 752.5 402.79C760.7 395.02 768.68 386.97 772.38 375.74C773.65 371.88 775.01 367.32 777.87 364.84C792.3 352.32 800.83 338.24 804.42 318.18C808.11 297.59 845.71 289.75 859.85 304.2C863.83 308.26 870.12 313.52 864.24 319.95C859.21 325.46 854.18 321.61 849.71 317.42C840.14 308.44 831.14 310.32 823.11 319.65C814.07 330.15 815.46 335.91 828.22 341.66C832.34 343.52 838.32 344.14 837.48 350.15C836.48 357.33 829.72 355.54 824.98 355.92C810.84 357.07 799.05 362.25 791.5 374.76C786.02 383.84 784.55 393.23 792.67 401.62C800.29 409.5 809.76 411.03 819.62 406.63C839 397.98 853.09 383.12 865.57 366.45C879.08 348.41 890.39 328.65 906.85 312.89C912.79 307.21 918.62 301.36 924.99 296.2C930.11 292.04 936.43 289.76 941.21 296.43C946.5 303.82 939.28 305.95 934.8 308.97C927.31 314.03 927.22 321.55 927.35 329.56C927.75 353.12 930.3 376.77 924.17 400.1C917.9 423.95 888.24 432.95 869.74 416.46C866.72 413.77 864.77 410.73 866.91 407.12C868.65 404.19 872.17 404.19 875.29 405.15C877.73 405.91 880.04 407.09 882.44 408C896.84 413.43 906.58 409.35 911.7 394.93C916.79 380.61 915.24 365.5 915.47 350.66C915.55 345.66 912.65 341.65 907.49 340.61C901.99 339.5 899.29 343.79 896.45 347.49C879.94 369.01 867.06 393.47 844.17 409.8C833.81 417.19 822.6 421.98 810.37 424.05C792.94 426.99 780.61 419.01 772.89 403.41L772.93 403.45ZM600.85 354.66C598.31 355.3 595.56 356.61 594.09 359.58C587.52 372.85 585.67 386.87 589.5 401.09C591.34 407.93 597.86 410.29 604.38 408.85C617.37 405.97 625.98 396.03 631.19 385.36C634.55 378.47 622.39 376.57 618.69 370.96C615.91 366.76 612.19 363.19 608.95 359.28C606.95 356.87 604.86 354.7 600.86 354.65L600.85 354.66ZM620.51 341.07C620.76 342.33 621.32 344.83 621.72 347.35C623.26 357.2 630.44 365.83 638.49 364.52C654.45 361.92 652.67 345.36 655.73 333.62C657.78 325.77 655.85 318.13 646.15 315.41C641.27 314.04 636.85 315.19 632.93 317.8C625.16 322.97 621.14 330.48 620.51 341.06V341.07Z" fill="#3A3642"/>
<path d="M631.33 608.37C629.62 611.99 629.06 615.54 632.97 617.7C638.41 620.7 644.5 621.47 649.58 617.16C654.33 613.13 658.17 608.05 662.79 603.84C665.03 601.79 668.07 598.54 671.32 601.76C674 604.41 673.11 608.25 670.85 610.88C664.68 618.09 659.75 626.99 650.1 630.09C644.79 631.79 643.62 634.64 643.26 639.65C642.25 653.6 639.82 667.38 634.51 680.38C630.5 690.19 623.8 697.83 612.14 696.64C602.43 695.65 597.78 688.94 597.08 679.18C595.7 659.97 604.13 643.39 610.78 626.31C615.21 614.94 615.21 615.36 603.65 615.46C595.38 615.54 588.65 613.19 584.36 625.2C580.78 635.21 570.38 643.05 557.75 644.4C548.65 645.37 542.79 641.44 539.93 633.07C530.95 606.72 553.04 564.24 579.65 556.42C596.02 551.61 608.58 561.79 607.06 579C606.55 584.81 604.94 590.52 603.79 596.26C602.37 603.43 605.89 605.6 611.69 602.68C620.3 598.35 628.27 592.26 632.3 583.46C643.97 557.95 660.4 535.18 673.31 510.41C681.32 499.5 690.17 497.1 694.9 497.1C699 501 699.5 508.5 694.9 505.327C691 503 683.431 507.158 678.92 514.68C666.25 535.79 663.57 540.93 656.54 553.84C651.44 563.21 649.35 571.42 645.51 582.36C642.52 590.9 644.49 593.77 650.36 584.39C651.4 582.72 664.46 571.2 678.52 546.85C696.12 516.35 701 503.5 694.9 497.1C726.5 494.5 650.36 625.45 633.8 609.44C633.44 609.09 632.56 608.87 631.32 608.36L631.33 608.37ZM583.57 613.11C576.83 610.98 572.42 607.79 568.21 604.19C564.58 601.09 563.92 593.17 557.21 595.32C550.3 597.53 550.3 605.16 548.72 610.93C547.69 614.69 548.1 618.99 548.54 622.97C549.67 633.09 556.98 636.56 565.85 631.35C572.95 627.18 577.54 620.55 583.57 613.11ZM607.98 671.47C608.19 677.52 606.64 683.09 611.84 684.84C617.44 686.73 620.47 681.95 622.58 677.59C628.72 664.91 630.87 651.17 632.5 637.36C632.85 634.42 632.77 630.88 629.55 629.72C625.81 628.38 623.23 631.4 621.57 634.16C614.32 646.2 609.99 659.32 607.98 671.47ZM597.26 577.67C597.94 571.24 595.28 566.72 587.85 566.33C580.38 565.94 570.61 575.81 570.61 583.42C570.61 591.56 577.98 599.99 585.15 600.05C591.88 600.11 597.24 590.44 597.26 577.67Z" fill="#3A3642"/>
<path d="M927.3 882.88C916.8 894.61 909.85 908.74 892.48 910.08C877.66 911.23 868.11 903.69 866.61 888.63C865.02 872.68 872.07 859.55 880.1 846.92C886.99 836.07 894.79 825.81 902.24 815.32C905.17 811.19 910 806.87 905.82 801.78C901.91 797.01 895.97 799.76 891.38 801.55C873.11 808.65 859.22 821.44 847.06 836.48C833.57 853.17 826.58 873.15 817.68 892.23C813.75 900.66 812.27 916.88 796.21 902.91C795.16 902 790.77 904.61 788.1 905.93C779.34 910.25 770.55 909.91 763.63 903.33C756.67 896.71 751.25 897.39 743.39 901.87C720.08 915.14 711.89 913.13 695.15 891.94C689.6 896.5 684.18 901.23 678.47 905.58C670.34 911.78 661.35 913.23 652.63 907.42C644.2 901.8 643.62 893.12 645.65 883.94C649.82 865.03 660.04 848.9 669.41 832.43C674.85 822.86 680.16 813.23 667.36 806.1C654.81 799.11 648.65 808.74 643.05 817.81C637.39 826.99 632.34 836.58 626.22 845.44C615.23 861.35 599.74 869.55 580.29 869.46C573.69 869.43 570.03 870.38 566.77 877.91C561.18 890.85 549.93 900.06 537.12 906.06C519.48 914.33 509.52 908.32 497.88 883.07C487.59 893.31 481.24 907.91 464.47 909.8C447.95 911.66 437.88 904 436.95 887.19C435.81 866.6 447.63 851.25 458.15 835.44C462.7 828.59 467.73 822.06 472.58 815.4C475.57 811.29 480.35 806.95 476.27 801.85C472.41 797.03 466.38 799.67 461.86 801.55C436.53 812.07 418.55 830.69 406.08 854.65C398.74 868.77 392.47 883.44 385.81 897.91C382.84 904.36 379.44 910.12 370.89 907.78C367.16 906.76 365.09 908.93 362.82 910.95C337.04 933.73 304.45 940.08 272.7 948.71C255.87 953.29 239.23 958.7 222.78 964.51C217.12 966.51 211.87 970.35 207.18 974.25C198.92 981.12 192.27 989.37 198.07 1000.88C204.04 1012.71 214.47 1015.43 226.88 1013.12C251.05 1008.62 264.22 991.16 275.51 971.71C279.86 964.21 281.96 955.32 289.22 949.7C292.12 947.46 295.47 945.8 299.03 948.66C301.97 951.02 301.8 954.53 300.43 957.11C283.94 988.05 268.81 1020.33 228.51 1026.99C207.1 1030.53 191.38 1024.44 183.99 1008.64C176.65 992.94 182.82 974.93 200.07 961.68C222.38 944.54 248.94 938.41 275.61 932.6C285.66 930.41 296.07 929.19 303.84 921.41C306.03 919.21 307.92 916.54 307.15 913.2C306.44 910.13 303.86 909.37 301.15 910.03C290.03 912.75 279.69 913.25 272.33 902.08C264.51 890.22 265.09 876.78 269.22 864.95C277.54 841.08 289.74 818.86 307.16 800.09C322.73 783.32 342.61 779.61 362.97 789.19C366.18 790.7 368.97 793.41 372.91 791.27C377.57 788.74 382.33 786.03 386.19 792.38C389.58 797.95 385.91 802.51 383.21 806.57C364.06 835.37 348.93 866.36 333.28 897.07C332.11 899.36 330.37 901.46 329.68 903.87C328.77 907.03 324.87 910.31 328.55 913.65C332.16 916.93 335.22 913.6 338.12 911.73C361.32 896.76 376.51 874.87 389.6 851.34C400.59 831.61 410.88 811.49 421.83 791.73C424.19 787.47 426.67 781.9 433.13 782.73C439.35 783.53 438.74 787.53 438.57 792.9C438.36 799.48 443.38 795.71 446.17 794.34C452.15 791.4 457.79 787.74 463.88 785.08C474.59 780.4 484.57 782.54 491.66 791.6C499.26 801.31 496.03 811.29 488.61 819.64C475.16 834.79 465.05 852 455.94 869.92C451.95 877.77 449.28 886.64 458.01 891.95C465.95 896.78 472.76 890.36 477.57 884.23C488.65 870.1 498.98 855.53 506.75 839.1C516.04 819.47 526.82 800.87 547.43 790.21C575.5 775.69 596.02 787.62 594.96 818.74C594.7 826.34 592.59 833.87 591.44 841.44C591 844.3 588.53 847.54 591.7 849.99C595.24 852.72 598.56 850.37 601.55 848.43C612.78 841.13 618.97 829.75 625.11 818.48C632.52 804.89 637.07 790.14 641.46 775.36C643.26 769.3 645.26 762.81 653.15 763.33C660.88 763.84 660.68 770.55 661.2 776.15C662.42 789.16 671.56 792.46 682.48 794.42C698.56 797.31 700.74 802.86 693.59 817.88C684.09 837.83 669.06 854.81 662.51 876.33C660.89 881.66 656.79 887.46 662.46 891.89C668.76 896.82 674.26 891.75 678.72 887.67C688.27 878.94 696.51 869.14 701.3 856.79C707.67 840.36 716.96 825.61 727.36 811.43C747.19 784.41 767.77 777.86 798.99 789.77C804.19 791.75 807.89 790.42 811.8 787.57C815.19 785.1 818.67 785.07 821.51 788.16C824.66 791.58 822.58 795.03 820.4 797.91C802.81 821.08 792.47 848.19 779.29 873.74C776.77 878.62 770.27 884.98 777.25 890.09C784.44 895.36 789.7 888.35 794.06 883.64C815.98 859.96 829.7 831 845.15 803.16C847.15 799.57 848.63 795.64 850.98 792.3C854.09 787.88 856.2 781.55 863.53 782.73C872.15 784.12 866.33 792.11 869.46 797.04C877.44 792.98 884.93 788.72 892.78 785.29C903.96 780.4 914.31 782.2 921.65 792.27C929.04 802.4 924.98 812 917.66 820.24C904.89 834.6 895.34 850.98 886.51 867.86C882.34 875.83 877.75 885.55 887.07 891.4C897.22 897.77 903.99 888.41 909.57 881.14C923.97 862.38 936.59 842.44 948.05 821.72C957.3 804.99 971.3 792.96 988.67 785.15C998.79 780.6 1009.33 779.92 1016.56 789.98C1023.28 799.33 1020.3 808.37 1012.63 816.34C1008.72 820.4 1005.7 825.34 1001.67 829.26C998.27 832.58 993.54 834.98 989.31 830.94C985.24 827.06 986.56 822.42 990.2 818.69C995.52 813.23 999.93 807.31 1003.78 796.74C984.42 802.83 973.08 814.35 963.38 827.15C954.34 839.08 948.9 853.19 944.94 867.66C942.78 875.57 943.73 883.06 950.27 888.9C957.11 895 964.46 893.42 971.92 890.19C987.5 883.44 999.64 872.08 1009.69 859.08C1017.28 849.26 1023.82 838.87 1034.82 832.44C1042.49 827.96 1038.92 820.34 1039.62 814.17C1041.86 794.25 1066.21 776.46 1085.56 781.7C1090.33 782.99 1095.32 785.73 1098.73 789.25C1102.65 793.29 1109 798.66 1102.53 804.92C1097.2 810.07 1092.61 805.52 1087.94 801.79C1077.52 793.49 1068.19 795.11 1060.43 805.85C1053.99 814.76 1053.96 821.91 1065.8 826.06C1070.45 827.69 1077.28 828.34 1076.01 835.26C1074.76 842.03 1067.9 840.24 1063.11 840.59C1050.05 841.53 1038.95 846.45 1031.49 857.23C1025.39 866.06 1022.1 876.02 1030.63 885.48C1038.98 894.73 1049.09 895.52 1060.13 890.49C1076.05 883.23 1087.52 870.68 1099.04 858.18C1101.48 855.54 1103.53 852.54 1105.98 849.91C1108.56 847.14 1112.12 844.8 1115.48 847.23C1118.71 849.57 1117.63 853.8 1116.58 857.31C1110.13 878.75 1065.19 910.36 1042.53 909.36C1029.75 908.8 1019.39 903.73 1014.06 891.64C1010.33 883.18 1006.3 883.67 1000.6 889.38C992.76 897.23 982.95 901.65 972.57 905.08C949 912.86 937.28 907.48 927.3 882.9V882.88ZM786.67 814.12C787.22 808.76 784.81 804.36 779.62 802.07C770.27 797.94 761.52 799.73 753.72 806.07C731.01 824.51 720.5 849.99 714.26 877.34C711.45 889.64 720.2 896.66 731.04 892.78C752.72 885.03 786.88 837 786.67 814.13V814.12ZM282.57 879.33C283.04 892.91 288.91 898.1 299.64 895.47C309.21 893.12 316.94 887.61 323.08 879.25C334.74 863.38 340.91 844.76 350.22 827.73C354.22 820.42 359.95 811.43 351.82 803.83C343.2 795.77 332.7 799.16 324.97 805.35C300.6 824.87 290.2 852.59 282.57 879.33ZM528.38 839.23C525.12 839.5 522.41 840.91 520.81 843.74C513.38 856.83 512.23 871.03 515.8 885.18C517.92 893.56 525.77 895.46 533.25 892.88C544.93 888.84 553.72 879.66 558.01 869.11C560.44 863.16 548.5 860.47 544.41 854.89C542.02 851.62 538.88 848.9 536.49 845.63C534.33 842.67 532.3 839.83 528.37 839.24L528.38 839.23ZM582.59 814.69C582.89 805.31 578.26 800.04 569.02 799.51C558.17 798.89 547 811.99 546.89 824.92C546.79 836.14 557.41 850.36 565.57 849.96C573.25 849.58 582.89 829.6 582.59 814.7V814.69Z" fill="#3A3642"/>
<path d="M158.54 733.74C156.91 732.01 156.63 729.4 157.85 727.36C176.21 696.61 203.9 683.29 239.61 684.09C254.61 684.93 269.28 686.1 283.44 692.06C296.97 697.75 309.42 696.61 318.5 682.55C323.11 675.41 330.31 670.52 339.43 672.04C347.72 673.43 353.91 679.44 355.6 687.04C358.97 702.23 347.36 711.2 336.34 714.57C321.53 719.11 315.48 729.52 308.37 740.86C287.77 773.68 273.48 809.55 257.44 844.57C246.25 869 232.78 892.1 217.31 913.98C197.26 942.32 164.05 953.79 137.92 942.27C127.39 937.63 121.74 929.96 121.82 918.37C121.84 914.58 122.99 910.86 126.91 909.68C130.91 908.48 133.67 911.27 135.83 914.34C150.28 934.81 169.96 937.51 189.39 921.44C203.09 910.11 212.7 895.56 221.61 880.36C237.53 853.21 248.94 823.94 261.59 795.3C271.16 773.64 284.62 754.08 293.53 732.05C298.72 719.22 295.45 712.52 283.34 708.49C262.57 701.58 241.32 697.67 219.56 702.1C197.71 706.55 179.32 716.77 169.32 736.59C167.95 739.31 164.26 739.8 162.17 737.58L158.55 733.73L158.54 733.74Z" fill="#3A3642"/>
<path d="M463.57 299.01C463.19 315.48 467.99 331.43 467.89 348C467.57 398.71 432.6 446.91 386.23 459.29C353.56 468.01 309.95 447.86 294.74 417.02C280.84 388.82 291.08 350.63 318.51 328.4C332.08 317.4 360.57 315.85 377.15 325.22C395.33 335.49 405.98 357.31 401.91 377.52C400.83 382.9 398.17 388.29 395.02 392.83C391.74 397.56 386.05 401.68 380.5 398.1C375.28 394.73 378.23 388.93 380.53 384.21C385.8 373.43 387.12 362.68 380.03 352.09C363.38 327.21 328.91 329.18 314.14 355.85C302.54 376.79 304.05 401.34 317.96 417.88C338.96 442.86 359.31 449.88 385.45 441.16C418.52 430.13 451.76 389.62 451.29 356.37C451.07 340.39 450.61 323.53 444.87 307.86C442.66 301.81 442.7 295.82 444.76 289.74C446.53 284.51 446.9 277.6 454.97 278.92C462.57 280.16 464.29 286.06 463.95 292.86C463.85 294.91 463.69 296.97 463.55 299.02L463.57 299.01Z" fill="#3A3642"/>
<path d="M315.67 218.88C315.76 217.78 316.44 216.81 317.45 216.36C331.65 210.06 346.57 207.9 362.69 207.9C388.34 206.78 406.71 217.78 425.53 231.45C445.8 246.18 446.3 246.24 460.69 226.69C469.72 214.42 479.9 203.27 497.47 205.77C515.33 208.31 527.93 224.43 526 242C524.15 258.82 505.17 272.04 486.62 271.98C459.54 271.89 437.56 262.27 416.58 245.12C383.73 218.25 350.79 215.14 319.2 232.75C317.09 233.93 314.52 232.22 314.73 229.82L315.67 218.9V218.88ZM481.63 257.07C494.76 257.5 510.52 246.97 510.63 237.71C510.76 226.88 503.25 222.48 493.85 221.57C484.94 220.7 470.4 236.77 470.51 246.42C470.6 254.47 475.95 256.55 481.62 257.07H481.63Z" fill="#3A3642"/>
<path d="M484.97 310.45C458.5 310.36 435.43 301.53 412.35 282.66C381.32 257.28 349.83 253.43 318.68 271.19C316.46 272.45 313.64 271.77 312.28 269.61L310.4 266.62C327.86 255.64 345.74 250.82 363.55 252.3C381.72 253.81 399.88 261.89 417.54 276.33C439.08 293.95 460.51 302.19 485 302.27L484.97 310.46V310.45Z" fill="#3A3642"/>
<path d="M422.81 267.31C422.08 268.32 420.66 268.54 419.65 267.81C400.08 253.7 382.95 244 361.12 244.37L360.63 244.44L360.14 244.39C346.96 245.01 333.17 247.45 317.98 254.26C316.85 254.77 315.51 254.29 314.99 253.16L313.44 249.85C312.91 248.71 313.4 247.34 314.55 246.82C330.7 239.59 345.97 236 360.3 236.17C360.45 236.17 360.6 236.17 360.74 236.17C386.97 236 407.76 249.07 424.48 261.19C425.49 261.92 425.71 263.34 424.98 264.35L422.83 267.31H422.81Z" fill="#3A3642"/>
<defs>
<linearGradient id="paint0_linear_2_44" x1="617.08" y1="1080.34" x2="617.08" y2="151" gradientUnits="userSpaceOnUse">
<stop stop-color="#3A3642"/>
<stop offset="0.44" stop-color="#666064"/>
<stop offset="0.77" stop-color="#EB4D2A"/>
<stop offset="1" stop-color="#BF432D"/>
</linearGradient>
</defs>
</svg>
