<svg width="292" height="292" viewBox="0 0 292 292" fill="none" xmlns="http://www.w3.org/2000/svg">
<rect width="292" height="292" fill="#BF432D"/>
<path d="M185.853 120.14C185.586 132.483 188.956 144.436 188.885 156.853C188.661 194.856 164.113 230.977 131.562 240.255C108.628 246.79 78.0152 231.689 67.3381 208.577C57.5807 187.444 64.7689 158.824 84.0241 142.165C93.55 133.921 113.549 132.76 125.188 139.782C137.95 147.478 145.426 163.83 142.569 178.976C141.811 183.008 139.944 187.047 137.732 190.449C135.43 193.994 131.436 197.081 127.54 194.399C123.875 191.873 125.946 187.526 127.561 183.989C131.26 175.911 132.187 167.855 127.21 159.918C115.522 141.273 91.3247 142.749 80.9565 162.736C72.8136 178.429 73.8735 196.827 83.638 209.222C98.3795 227.942 112.665 233.203 131.014 226.668C154.229 218.402 177.562 188.044 177.233 163.126C177.078 151.15 176.755 138.515 172.726 126.772C171.174 122.238 171.203 117.749 172.649 113.193C173.891 109.273 174.151 104.095 179.816 105.084C185.151 106.013 186.358 110.435 186.12 115.531C186.049 117.067 185.937 118.611 185.839 120.147L185.853 120.14Z" fill="white"/>
<path d="M82.0306 60.0898C82.0938 59.2654 82.5712 58.5385 83.2802 58.2013C93.2482 53.48 103.722 51.8613 115.038 51.8613C133.043 51.022 145.939 59.2654 159.15 69.5098C173.379 80.5486 173.73 80.5936 183.831 65.9427C190.17 56.7474 197.316 48.3915 209.65 50.2651C222.187 52.1686 231.032 64.249 229.677 77.4161C228.379 90.0211 215.055 99.9283 202.033 99.8833C183.024 99.8159 167.595 92.6066 152.867 79.7542C129.807 59.6177 106.684 57.287 84.5086 70.4841C83.0274 71.3684 81.2234 70.0869 81.3708 68.2883L82.0306 60.1048V60.0898ZM198.531 88.7096C207.748 89.0319 218.811 81.1406 218.888 74.2011C218.979 66.085 213.707 62.7877 207.109 62.1057C200.854 61.4537 190.647 73.4967 190.725 80.7285C190.788 86.7612 194.543 88.32 198.524 88.7096H198.531Z" fill="white"/>
<path d="M200.875 128.713C182.294 128.646 166.099 122.028 149.898 107.887C128.115 88.867 106.01 85.9817 84.1435 99.2912C82.5852 100.235 80.6056 99.7259 79.6509 98.1071L78.3312 95.8664C90.5877 87.6379 103.139 84.0258 115.641 85.1349C128.396 86.2665 141.144 92.3217 153.541 103.143C168.661 116.348 183.705 122.523 200.896 122.583L200.875 128.72V128.713Z" fill="white"/>
<path d="M157.24 96.3836C156.728 97.1405 155.731 97.3054 155.022 96.7583C141.284 86.1842 129.26 78.9149 113.935 79.1922L113.591 79.2446L113.247 79.2072C103.995 79.6718 94.3152 81.5004 83.6522 86.6038C82.8589 86.986 81.9183 86.6263 81.5532 85.7795L80.4652 83.2989C80.0931 82.4446 80.4371 81.4179 81.2444 81.0282C92.5813 75.61 103.3 72.9196 113.36 73.047C113.465 73.047 113.57 73.047 113.669 73.047C132.081 72.9196 146.676 82.7144 158.413 91.7972C159.122 92.3443 159.276 93.4084 158.764 94.1653L157.254 96.3836H157.24Z" fill="white"/>
</svg>
